<svg id="Capa_1" data-name="Capa 1" xmlns="http://www.w3.org/2000/svg" viewBox="0 0 1369.31 348"><defs><style>.cls-1{fill:#f8a734;}.cls-2{fill:#262626;}.cls-3{font-size:57px;font-family:Nunito-Bold, Nunito;font-weight:700;}.cls-4{font-size:50px;}.cls-5,.cls-6{fill:none;stroke-miterlimit:10;stroke-width:3px;}.cls-5{stroke:#1a1a1a;}.cls-6{stroke:#f8a734;}</style></defs><title>tour</title><rect class="cls-1" x="372.02" width="608" height="318"/><path class="cls-2" d="M1193,294V606H591V294h602m3-3H588V609h608V291Z" transform="translate(-195.98 -261)"/><text class="cls-3" transform="translate(557.77 189.32)">T<tspan class="cls-4" x="34.94" y="0">OUR 360°</tspan></text><line class="cls-5" x1="23.23" y1="43.6" x2="246.42" y2="40.75"/><line class="cls-5" x1="58.33" y1="115.27" x2="281.52" y2="112.43"/><line class="cls-5" x1="25.23" y1="199.1" x2="248.42" y2="196.25"/><line class="cls-5" x1="73.83" y1="270.34" x2="297.02" y2="267.5"/><line class="cls-6" x1="0.02" y1="74.55" x2="223.21" y2="71.71"/><line class="cls-6" x1="35.11" y1="146.23" x2="258.31" y2="143.38"/><line class="cls-6" x1="2.01" y1="230.05" x2="225.21" y2="227.21"/><line class="cls-6" x1="50.61" y1="301.3" x2="273.8" y2="298.45"/><line class="cls-5" x1="1074.81" y1="40.64" x2="1315.06" y2="37.58"/><line class="cls-5" x1="1112.52" y1="112.28" x2="1352.76" y2="109.22"/><line class="cls-5" x1="1076.8" y1="196.14" x2="1317.05" y2="193.08"/><line class="cls-5" x1="1129.05" y1="267.34" x2="1369.3" y2="264.28"/><line class="cls-6" x1="1049.79" y1="71.61" x2="1290.04" y2="68.55"/><line class="cls-6" x1="1087.5" y1="143.26" x2="1327.75" y2="140.2"/><line class="cls-6" x1="1051.79" y1="227.11" x2="1292.03" y2="224.05"/><line class="cls-6" x1="1104.03" y1="298.31" x2="1344.28" y2="295.25"/></svg>